<svg xmlns="http://www.w3.org/2000/svg" width="222.153" height="49.979"><defs><clipPath id="a"><path fill="#edfafe" d="M0 0h49.98v49.979H0z" data-name="Rectangle 17"/></clipPath></defs><g data-name="Group 50"><text fill="#edfafe" data-name="The Portal" font-family="Nunito-Bold, Nunito" font-size="32" font-weight="700" transform="translate(68.153 35)"><tspan x="0" y="0">The Portal</tspan></text><g data-name="Group 49"><g fill="#edfafe" clip-path="url(#a)" data-name="Group 47"><path d="m41.888 34.678-1.452-1.452a.5.5 0 0 0-.708 0l-6.5 6.5a.5.5 0 0 0 0 .708l1.452 1.452a.5.5 0 0 0 .708 0l6.5-6.5a.5.5 0 0 0 0-.708" data-name="Path 1109"/><path d="m34.681 8.092-1.456 1.456a.5.5 0 0 0 0 .7l6.506 6.506a.5.5 0 0 0 .7 0l1.456-1.456a.5.5 0 0 0 0-.7l-6.505-6.505a.5.5 0 0 0-.7 0" data-name="Path 1110"/><path d="m14.601 8.092-6.5 6.5a.5.5 0 0 0 0 .706l1.453 1.453a.5.5 0 0 0 .706 0l6.5-6.5a.5.5 0 0 0 0-.706l-1.454-1.454a.5.5 0 0 0-.706 0" data-name="Path 1111"/><path d="m20.852 6.156 2.369-2.369a2.5 2.5 0 0 1 3.539 0l2.369 2.369a.49.49 0 0 0 .693 0l1.466-1.466a.49.49 0 0 0 0-.693l-2.369-2.369a5.557 5.557 0 0 0-7.858 0L18.693 4a.49.49 0 0 0 0 .693l1.466 1.466a.49.49 0 0 0 .693 0" data-name="Path 1112"/><path d="m29.128 43.827-2.365 2.365a2.506 2.506 0 0 1-3.543 0l-2.365-2.365a.492.492 0 0 0-.7 0l-1.462 1.462a.493.493 0 0 0 0 .7l2.365 2.365a5.56 5.56 0 0 0 7.862 0l2.365-2.365a.493.493 0 0 0 0-.7l-1.462-1.462a.492.492 0 0 0-.7 0" data-name="Path 1113"/><path d="m6.159 29.131-2.372-2.372a2.5 2.5 0 0 1 0-3.536l2.372-2.377a.487.487 0 0 0 0-.689l-1.47-1.47a.488.488 0 0 0-.689 0l-2.372 2.372a5.554 5.554 0 0 0 0 7.855L4 31.29a.488.488 0 0 0 .689 0l1.47-1.47a.488.488 0 0 0 0-.689" data-name="Path 1114"/><path d="m43.827 20.854 2.365 2.365a2.505 2.505 0 0 1 0 3.543l-2.365 2.365a.493.493 0 0 0 0 .7l1.462 1.463a.493.493 0 0 0 .7 0l2.365-2.365a5.56 5.56 0 0 0 0-7.862l-2.365-2.365a.493.493 0 0 0-.7 0l-1.462 1.463a.493.493 0 0 0 0 .7" data-name="Path 1115"/><path d="m15.3 41.89 1.459-1.459a.5.5 0 0 0 0-.7l-6.508-6.508a.5.5 0 0 0-.7 0l-1.459 1.459a.5.5 0 0 0 0 .7L14.6 41.89a.5.5 0 0 0 .7 0" data-name="Path 1116"/><path d="m36.343 26.739-11.35 11.345-9.809-9.809a.483.483 0 0 0-.683 0l-1.435 1.435a.483.483 0 0 0 0 .683l9.812 9.812a2.993 2.993 0 0 0 4.233 0l13.1-13.1a2.993 2.993 0 0 0 0-4.233Z" data-name="Path 1117"/><path d="M13.838 23.048 24.99 11.896l9.809 9.809a.483.483 0 0 0 .683 0l1.435-1.435a.483.483 0 0 0 0-.683l-9.812-9.812a2.993 2.993 0 0 0-4.233 0l-13.1 13.1a2.993 2.993 0 0 0 0 4.233Z" data-name="Path 1118"/><path d="m25.34 31.85 1.462-1.462a.493.493 0 0 0 0-.7l-6.511-6.511a.493.493 0 0 0-.7 0l-1.462 1.462a.493.493 0 0 0 0 .7l6.511 6.511a.493.493 0 0 0 .7 0" data-name="Path 1119"/><path d="m30.393 26.798 1.455-1.455a.5.5 0 0 0 0-.7l-6.5-6.5a.5.5 0 0 0-.7 0l-1.455 1.455a.5.5 0 0 0 0 .7l6.5 6.5a.5.5 0 0 0 .7 0" data-name="Path 1120"/></g></g></g></svg>